PathFileType	4	(X/Y/Z)	Walk1.trc
DataRate	CameraRate	NumFrames	NumMarkers	Units	OrigDataRate	OrigDataStartFrame	OrigNumFrames
200.000000	200.000000	5	59	mm	200.000000	348	610
Frame#	Times		LFHD		RFHD		CLAV		STRN		LASI		RASI		RACR1		RUA1		RElbow		RElbowM		RFA1		RWRR		RWRU		RCAR		LACR1		LUA1		LElbow		LFA1		LWRR		LWRU		LCAR		RTH2		RTB1		RTB2		LTH1		LTH3		LTH2		LMFC		LTB1		LTB2		LTB4		LMT1		LToe		LLFC		LMT5		RTH3		LTB3		RTB4		RTB3		RMFC		LTH4		RTH4		RToe		RTH1		RMMAL		RLFC		RBHD		RMT1		RCAL		RBack		LMMAL		LLMAL		RPSI		C7		T10		LPSI		LCAL		LBHD		LElbowM
			X1	Y1	Z1	X2	Y2	Z2	X3	Y3	Z3	X4	Y4	Z4	X5	Y5	Z5	X6	Y6	Z6	X7	Y7	Z7	X8	Y8	Z8	X9	Y9	Z9	X10	Y10	Z10	X11	Y11	Z11	X12	Y12	Z12	X13	Y13	Z13	X14	Y14	Z14	X15	Y15	Z15	X16	Y16	Z16	X17	Y17	Z17	X18	Y18	Z18	X19	Y19	Z19	X20	Y20	Z20	X21	Y21	Z21	X22	Y22	Z22	X23	Y23	Z23	X24	Y24	Z24	X25	Y25	Z25	X26	Y26	Z26	X27	Y27	Z27	X28	Y28	Z28	X29	Y29	Z29	X30	Y30	Z30	X31	Y31	Z31	X32	Y32	Z32	X33	Y33	Z33	X34	Y34	Z34	X35	Y35	Z35	X36	Y36	Z36	X37	Y37	Z37	X38	Y38	Z38	X39	Y39	Z39	X40	Y40	Z40	X41	Y41	Z41	X42	Y42	Z42	X43	Y43	Z43	X44	Y44	Z44	X45	Y45	Z45	X46	Y46	Z46	X47	Y47	Z47	X48	Y48	Z48	X49	Y49	Z49	X50	Y50	Z50	X51	Y51	Z51	X52	Y52	Z52	X53	Y53	Z53	X54	Y54	Z54	X55	Y55	Z55	X56	Y56	Z56	X57	Y57	Z57	X58	Y58	Z58	X59	Y59	Z59

348	1.74	64.177	1674.4	39.049	68.286	1666.1	-59.611	72.771	1408.9	10.479	138.72	1249.3	11.662	11.532	994.02	-160.03	41.645	994.67	195.39	-46.715	1494.1	176.76	-81.762	1332.8	298.87	-82.536	1185.4	353.35	-142.63	1114.9	261.11	-62.17	1033.4	374.67	-48.338	911.03	310.77	-56.543	919.6	391.62	-26.861	833.24	363.5	-40.816	1471.3	-173.78	-57.772	1301	-268.05	-35.995	1142.1	-329.5	21.387	1014.9	-342.51	99.642	908.47	-282.43	63.623	883.08	-342.95	134.82	830.21	-318.55	103.12	754.46	226.55	181.97	421.3	161.49	145.32	338.09	214.93	-72.121	754.78	-175.46	-71.617	586.5	-143.15	-13.979	673.8	-147.63	-65.857	499.77	20.987	-46.824	371.25	-66.886	-103.34	288.34	-96.3	-70.695	293.49	-43.355	-78.001	36.412	-11.798	-28.215	24.096	-57.808	-95.148	502.55	-134.2	-152.1	26.479	-81.406	98.412	649.26	232.87	-103.78	214.92	-22.043	168.19	335.71	158.06	154.86	250.9	153.99	124.59	537.06	71.927	-73.038	671.41	-158.98	55.326	723.48	242.98	270.11	77.808	181.3	9.4384	797.42	248.02	110.26	115.77	100.52	119.59	543.23	227.42	-76.895	1579.6	-69.874	234.44	63.608	143.19	15.142	76.083	132.1	-189.26	1374	117.96	-196.27	90.908	73.346	-231.4	84.925	-9.7206	-228.57	1034.2	63.928	-120.02	1488.5	3.5448	-184.96	1174.2	18.812	-226.8	1047.7	-21.278	-280.98	65.262	53.106	-67.94	1597.5	76.26	-94.331	1069	-242.9
349	1.745	70.363	1673.4	39.403	74.426	1665.2	-59.273	78.935	1407.9	10.52	144.82	1248.2	11.436	16.575	993.14	-160.21	48.66	993.53	195.08	-40.281	1493.2	176.99	-76.297	1332.1	299.09	-77.812	1184.8	353.68	-137.98	1114.6	261.29	-58.269	1032.6	375.1	-45.026	910.13	311.34	-53.341	918.82	392.15	-24.291	832.13	364.11	-34.929	1470.3	-173.55	-50.85	1300	-267.85	-27.754	1141.4	-329.48	30.839	1014.7	-342.43	109.99	909.13	-282.23	74.349	883.41	-342.84	146.1	831.3	-318.31	109.95	753.74	226.22	192.95	422.11	161.24	158.82	337.99	214.84	-67.517	754.13	-175.45	-67.6	585.82	-143.34	-9.6377	672.91	-147.79	-61.772	498.87	20.737	-43.947	370.21	-67.026	-101.23	287.75	-96.369	-68.495	292.65	-43.439	-77.896	36.41	-11.84	-28.16	24.089	-57.87	-91.456	501.89	-134.38	-152.07	26.493	-81.312	105.48	648.52	232.54	-102.3	214.42	-22.002	181.83	336.15	157.99	171.13	250.95	154.16	131.92	535.95	71.413	-68.721	670.74	-159.08	62.356	722.69	243.06	291.6	81.203	181.78	16.331	796.53	248.27	130.69	114.45	100.91	127.54	542.42	226.96	-70.752	1578.8	-69.537	256.35	65.955	143.67	36.749	72.05	132.5	-182.98	1373.1	118.47	-195.76	91.187	73.455	-230.94	85.438	-9.6295	-222.17	1033.4	65.123	-113.86	1487.6	3.9002	-178.75	1173.4	19.779	-220.85	1046.9	-19.998	-280.68	66.066	53.203	-61.745	1596.6	76.614	-85.736	1067.6	-243.14
350	1.75	76.568	1672.5	39.783	80.584	1664.3	-58.91	85.133	1406.9	10.582	150.96	1247.1	11.215	21.573	992.2	-160.45	55.658	992.31	194.86	-33.81	1492.3	177.24	-70.815	1331.4	299.32	-73.076	1184.1	354.03	-133.28	1114.2	261.48	-54.329	1031.9	375.56	-41.638	909.22	311.94	-50.085	918.03	392.69	-21.652	831.02	364.74	-29.015	1469.3	-173.3	-43.895	1299	-267.63	-19.533	1140.6	-329.43	40.251	1014.6	-342.32	120.29	909.78	-281.98	85.023	883.76	-342.69	157.32	832.41	-318.02	116.68	752.85	225.88	203.76	422.91	160.98	172.18	337.93	214.75	-62.928	753.45	-175.43	-63.611	585.13	-143.52	-5.3161	672	-147.96	-57.696	497.95	20.486	-41.093	369.15	-67.172	-99.147	287.15	-96.443	-66.314	291.81	-43.531	-77.798	36.405	-11.881	-28.112	24.084	-57.931	-87.797	501.22	-134.55	-152.04	26.505	-81.215	112.39	647.63	232.26	-100.81	213.92	-21.969	195.29	336.65	157.9	187.22	251.16	154.29	139.13	534.69	70.912	-64.427	670.06	-159.18	69.267	721.76	243.15	312.82	84.862	182.16	23.159	795.54	248.5	150.97	113.41	101.26	135.35	541.47	226.51	-64.588	1577.9	-69.178	278.02	68.608	144.03	58.301	68.359	132.89	-176.66	1372.2	119	-195.26	91.466	73.561	-230.5	85.957	-9.5393	-215.74	1032.5	66.346	-107.66	1486.6	4.2837	-172.51	1172.5	20.767	-214.86	1046.1	-18.693	-280.39	66.877	53.297	-55.532	1595.6	76.993	-77.159	1066.3	-243.34
351	1.755	82.79	1671.5	40.191	86.759	1663.4	-58.519	91.364	1405.8	10.667	157.13	1246	11.003	26.533	991.23	-160.75	62.642	991.02	194.73	-27.299	1491.4	177.51	-65.313	1330.7	299.58	-68.323	1183.4	354.42	-128.53	1113.8	261.68	-50.348	1031.1	376.03	-38.171	908.31	312.55	-46.772	917.22	393.25	-18.938	829.91	365.37	-23.07	1468.2	-173.02	-36.911	1297.9	-267.38	-11.335	1139.9	-329.35	49.619	1014.4	-342.17	130.53	910.44	-281.68	95.64	884.12	-342.49	168.46	833.52	-317.68	123.31	751.79	225.56	214.39	423.68	160.73	185.4	337.92	214.65	-58.355	752.76	-175.41	-59.651	584.42	-143.71	-1.0147	671.06	-148.14	-53.64	496.99	20.24	-38.266	368.08	-67.323	-97.091	286.54	-96.518	-64.155	290.96	-43.629	-77.708	36.396	-11.921	-28.071	24.081	-57.991	-84.177	500.54	-134.72	-152.03	26.514	-81.114	119.14	646.57	232.02	-99.327	213.42	-21.945	208.57	337.22	157.8	203.13	251.51	154.4	146.23	533.27	70.423	-60.157	669.36	-159.27	76.06	720.7	243.23	333.76	88.785	182.4	29.923	794.45	248.73	171.08	112.66	101.57	143.01	540.39	226.08	-58.403	1577	-68.795	299.42	71.566	144.27	79.772	65.005	133.26	-170.31	1371.2	119.55	-194.76	91.746	73.664	-230.06	86.482	-9.4485	-209.26	1031.6	67.591	-101.44	1485.6	4.6963	-166.23	1171.5	21.775	-208.83	1045.3	-17.367	-280.1	67.694	53.391	-49.3	1594.6	77.4	-68.607	1065	-243.5
352	1.76	89.03	1670.5	40.629	92.954	1662.5	-58.098	97.63	1404.7	10.778	163.33	1244.9	10.799	31.467	990.21	-161.12	69.618	989.65	194.68	-20.749	1490.4	177.81	-59.788	1329.9	299.85	-63.551	1182.8	354.82	-123.72	1113.3	261.88	-46.319	1030.2	376.51	-34.625	907.39	313.17	-43.395	916.4	393.82	-16.143	828.79	366.02	-17.094	1467.1	-172.71	-29.9	1296.9	-267.1	-3.1648	1139.1	-329.23	58.941	1014.3	-341.98	140.71	911.11	-281.34	106.2	884.5	-342.24	179.54	834.64	-317.3	129.85	750.58	225.24	224.83	424.43	160.47	198.46	337.95	214.55	-53.795	752.06	-175.38	-55.724	583.71	-143.89	3.2668	670.1	-148.34	-49.613	496	20.002	-35.47	367	-67.474	-95.066	285.94	-96.595	-62.019	290.11	-43.73	-77.627	36.384	-11.96	-28.038	24.08	-58.05	-80.598	499.86	-134.88	-152.03	26.52	-81.009	125.74	645.37	231.81	-97.84	212.92	-21.932	221.66	337.84	157.67	218.85	251.99	154.46	153.23	531.72	69.944	-55.909	668.65	-159.36	82.74	719.5	243.3	354.39	92.97	182.52	36.628	793.26	248.94	191	112.2	101.83	150.55	539.19	225.68	-52.195	1576.1	-68.387	320.53	74.827	144.39	101.13	61.981	133.63	-163.92	1370.2	120.13	-194.27	92.028	73.765	-229.62	87.011	-9.3558	-202.75	1030.7	68.855	-95.181	1484.6	5.139	-159.92	1170.6	22.8	-202.76	1044.4	-16.023	-279.81	68.518	53.488	-43.048	1593.5	77.832	-60.081	1063.7	-243.62
